HIERARCHY
ROOT Hips
{
 OFFSET 0.000000 0.000000 0.000000
 CHANNELS 6 Xposition Yposition Zposition Yrotation Xrotation Zrotation
 JOINT Chest
 {
  OFFSET 0.000000 10.080317 -0.001081
  CHANNELS 3 Yrotation Xrotation Zrotation
  JOINT Chest2
  {
   OFFSET 0.000000 11.096852 0.001963
   CHANNELS 3 Yrotation Xrotation Zrotation
   JOINT Chest3
   {
    OFFSET 0.000000 10.026525 0.000000
    CHANNELS 3 Yrotation Xrotation Zrotation
    JOINT Chest4
    {
     OFFSET 0.000000 10.026525 0.000000
     CHANNELS 3 Yrotation Xrotation Zrotation
     JOINT Neck
     {
      OFFSET 0.000000 14.108171 0.000000
      CHANNELS 3 Yrotation Xrotation Zrotation
      JOINT Head
      {
       OFFSET 0.000000 9.333493 0.004668
       CHANNELS 3 Yrotation Xrotation Zrotation
       End Site
       {
        OFFSET 0.000000 17.851786 0.002438
       }
      }
     }
     JOINT RightCollar
     {
      OFFSET -3.071622 7.873185 0.000000
      CHANNELS 3 Yrotation Xrotation Zrotation
      JOINT RightShoulder
      {
       OFFSET -14.378659 0.000000 0.000000
       CHANNELS 3 Yrotation Xrotation Zrotation
       JOINT RightElbow
       {
        OFFSET -30.778728 0.000000 0.000000
        CHANNELS 3 Yrotation Xrotation Zrotation
        JOINT RightWrist
        {
         OFFSET -25.164217 0.000000 0.000000
         CHANNELS 3 Yrotation Xrotation Zrotation
         End Site
         {
          OFFSET -18.796788 0.000000 0.000000
         }
        }
       }
      }
     }
     JOINT LeftCollar
     {
      OFFSET 3.071622 7.873185 0.000000
      CHANNELS 3 Yrotation Xrotation Zrotation
      JOINT LeftShoulder
      {
       OFFSET 14.378659 0.000000 0.000000
       CHANNELS 3 Yrotation Xrotation Zrotation
       JOINT LeftElbow
       {
        OFFSET 30.778728 0.000000 0.000000
        CHANNELS 3 Yrotation Xrotation Zrotation
        JOINT LeftWrist
        {
         OFFSET 25.164217 0.000000 0.000000
         CHANNELS 3 Yrotation Xrotation Zrotation
         End Site
         {
          OFFSET 18.796788 0.000000 0.000000
         }
        }
       }
      }
     }
    }
   }
  }
 }
 JOINT RightHip
 {
  OFFSET -8.194923 0.005295 0.000540
  CHANNELS 3 Yrotation Xrotation Zrotation
  JOINT RightKnee
  {
   OFFSET 0.000000 -42.473320 -0.000511
   CHANNELS 3 Yrotation Xrotation Zrotation
   JOINT RightAnkle
   {
    OFFSET 0.000000 -41.474259 -0.000865
    CHANNELS 3 Yrotation Xrotation Zrotation
    JOINT RightToe
    {
     OFFSET 0.000000 -7.354994 16.712725
     CHANNELS 3 Yrotation Xrotation Zrotation
     End Site
     {
      OFFSET 0.000000 -1.553903 6.764158
     }
    }
   }
  }
 }
 JOINT LeftHip
 {
  OFFSET 8.194923 0.005295 0.000540
  CHANNELS 3 Yrotation Xrotation Zrotation
  JOINT LeftKnee
  {
   OFFSET 0.000000 -42.473320 -0.000511
   CHANNELS 3 Yrotation Xrotation Zrotation
   JOINT LeftAnkle
   {
    OFFSET 0.000000 -41.474259 -0.000865
    CHANNELS 3 Yrotation Xrotation Zrotation
    JOINT LeftToe
    {
     OFFSET 0.000000 -7.354994 16.712725
     CHANNELS 3 Yrotation Xrotation Zrotation
     End Site
     {
      OFFSET 0.000000 -1.553903 6.764158
     }
    }
   }
  }
 }
}
MOTION
Frames: 8
Frame Time: 0.016667
0.000000 91.111157 0.000000 0.000000 -5.826342 0.000000 0.000000 11.116423 0.000000 0.000000 -5.290081 0.000000 0.000000 0.000000 0.000000 0.000000 0.000000 0.000000 0.000000 12.665069 0.000000 0.000000 0.575450 0.000000 0.000000 0.000000 0.000000 0.000000 0.000000 0.000000 2.337306 0.000000 0.000000 -2.337306 0.000000 0.000000 0.000000 0.000000 0.000000 0.000000 0.000000 0.000000 -2.337306 0.000000 0.000000 2.337306 0.000000 0.000000 0.000000 8.578828 0.000000 0.000000 1.905768 0.000000 0.000000 -4.658254 0.000000 0.000000 0.000000 0.000000 0.000000 8.578828 0.000000 0.000000 1.905768 0.000000 0.000000 -4.658254 0.000000 0.000000 0.000000 0.000000
-356.435198 97.727218 88.250201 -41.988710 20.018332 33.972897 -0.621032 6.648674 6.303892 -0.365778 2.951433 2.804269 -0.365778 2.951433 2.804269 -0.287833 2.211953 2.104505 -8.534227 7.324853 -4.226171 -14.799627 -22.530813 -4.005081 11.647234 -4.356041 6.181181 -6.947905 -40.325980 14.925599 50.270234 2.335348 -2.225535 13.535346 6.667348 -51.115786 -5.972728 -1.596097 -6.765060 -2.867961 -11.662119 -71.183483 -42.756100 11.282146 -40.485290 3.227114 7.284701 15.019901 -24.945187 -33.726126 -16.988088 -0.388701 -1.975945 3.321653 -2.907791 3.645833 -6.430975 0.010511 -0.416157 -0.023399 9.144457 -2.222740 -6.551368 3.389914 13.083401 -6.547859 -8.428181 8.217353 -29.556106 -0.023158 -0.053220 -0.061794
-356.192049 97.772882 88.266750 -41.917383 20.061374 34.068403 -0.620908 6.657104 6.302573 -0.365088 2.954320 2.805049 -0.365088 2.954320 2.805049 -0.287333 2.214121 2.105088 -8.524448 7.300978 -4.228095 -14.780998 -22.575691 -4.011534 11.681231 -4.469513 6.100578 -6.698685 -40.306285 14.519880 50.003162 2.167469 -2.264626 13.667916 6.647135 -51.160246 -5.986612 -1.586474 -6.726351 -2.859528 -11.762622 -71.182346 -42.779554 11.223201 -40.527144 3.214005 7.284716 15.028519 -25.011344 -33.913960 -17.084876 -0.494110 -2.184609 3.405407 -2.867937 4.093436 -6.414554 0.000376 -0.462151 -0.039102 9.044274 -2.289057 -6.591472 3.395862 13.104052 -6.542172 -8.430666 8.221876 -29.552537 -0.031595 -0.081918 -0.093182
-355.933011 97.819973 88.291892 -41.843303 20.089533 34.158211 -0.626488 6.671099 6.299065 -0.367267 2.961489 2.803607 -0.367267 2.961489 2.803607 -0.288992 2.219489 2.104019 -8.510810 7.275743 -4.232860 -14.753316 -22.623543 -4.025482 11.738338 -4.602188 6.009131 -6.417482 -40.322770 14.092615 49.612432 2.030150 -2.288376 13.867320 6.646593 -51.267333 -6.004904 -1.627612 -6.699190 -2.858499 -11.825154 -71.164771 -42.802116 11.177633 -40.557234 3.197903 7.290114 15.036030 -25.093865 -34.104259 -17.181187 -0.585009 -2.384369 3.488636 -2.833050 4.549884 -6.392056 -0.001123 -0.501750 -0.053322 8.917934 -2.370342 -6.622966 3.388183 13.144611 -6.545942 -8.416940 8.230977 -29.552224 -0.038092 -0.112461 -0.111795
-355.673681 97.865310 88.315324 -41.773002 20.090117 34.239034 -0.639126 6.687238 6.310973 -0.374440 2.968153 2.806748 -0.374440 2.968153 2.806748 -0.294417 2.224452 2.106411 -8.499293 7.264843 -4.240671 -14.727182 -22.645015 -4.045815 11.829321 -4.730813 5.885612 -6.127984 -40.338839 13.654968 49.145038 1.906852 -2.290416 14.089448 6.661494 -51.385923 -6.004840 -1.643683 -6.702036 -2.871810 -11.882601 -71.148829 -42.826816 11.166074 -40.556577 3.209877 7.292140 15.018848 -25.136004 -34.269310 -17.297372 -0.723501 -2.554370 3.550457 -2.794208 4.989632 -6.364423 0.003150 -0.532286 -0.060960 8.771779 -2.425988 -6.636579 3.399256 13.193037 -6.563002 -8.408085 8.238309 -29.536166 -0.046395 -0.136018 -0.131185
-355.395635 97.910300 88.338286 -41.704482 20.068119 34.308354 -0.650766 6.698766 6.312209 -0.380759 2.974015 2.807994 -0.380759 2.974015 2.807994 -0.299188 2.228819 2.107378 -8.497600 7.263723 -4.242172 -14.723120 -22.647310 -4.049553 11.911142 -4.858800 5.763117 -5.791635 -40.370723 13.199738 48.591912 1.813249 -2.300685 14.326301 6.709167 -51.516978 -6.025832 -1.640518 -6.684910 -2.889786 -11.948274 -71.154803 -42.836772 11.165991 -40.523793 3.207320 7.291727 14.998614 -25.146645 -34.430908 -17.430898 -0.851913 -2.694641 3.586174 -2.772628 5.429237 -6.317718 0.005048 -0.555893 -0.066507 8.666100 -2.466915 -6.652074 3.375370 13.243249 -6.593528 -8.387554 8.255613 -29.491264 -0.053016 -0.144908 -0.147928
-355.110017 97.954463 88.372195 -41.644367 20.020545 34.362233 -0.668350 6.716501 6.324487 -0.390201 2.979524 2.812246 -0.390201 2.979524 2.812246 -0.306314 2.232905 2.110614 -8.497799 7.276242 -4.246550 -14.720306 -22.624515 -4.059373 12.032484 -4.986593 5.622605 -5.410954 -40.437704 12.684013 47.876994 1.737232 -2.250685 14.597789 6.764330 -51.657206 -6.037214 -1.632589 -6.680061 -2.933135 -12.013558 -71.137447 -42.818251 11.133705 -40.471319 3.232431 7.285563 14.977696 -25.143835 -34.557102 -17.595984 -1.036455 -2.837488 3.632852 -2.705394 5.879001 -6.240340 0.003218 -0.577007 -0.086998 8.568342 -2.475855 -6.658304 3.351578 13.286610 -6.626726 -8.365488 8.275094 -29.437962 -0.054872 -0.145432 -0.160400
-354.799989 98.000980 88.426063 -41.596734 19.962517 34.405995 -0.684592 6.727923 6.314205 -0.398281 2.983834 2.810787 -0.398281 2.983834 2.810787 -0.312385 2.236102 2.109561 -8.493812 7.306695 -4.252003 -14.707273 -22.568854 -4.075218 12.186203 -5.074483 5.486783 -4.983815 -40.527778 12.151564 47.028556 1.621499 -2.239491 14.914498 6.826598 -51.788907 -6.039997 -1.615696 -6.671537 -2.948812 -12.087569 -71.135047 -42.789397 11.142458 -40.427429 3.227532 7.276818 14.970899 -25.092990 -34.693328 -17.814123 -1.243630 -2.944965 3.679569 -2.629899 6.343222 -6.113864 -0.005999 -0.601290 -0.122129 8.491208 -2.481120 -6.688953 3.350250 13.345863 -6.649609 -8.345742 8.298118 -29.355132 -0.057013 -0.138403 -0.171753
